<svg id="Laag_1" data-name="Laag 1" xmlns="http://www.w3.org/2000/svg" viewBox="0 0 229.49 73.07"><title>Naamloos-2</title><path d="M84.81,33.53V55.25c0,5.15,1.27,8.8,7.21,8.8s7.21-3.65,7.21-8.8V33.53h14.43V58c0,13.4-9.43,17.52-21.64,17.52S70.38,71.42,70.38,58V33.53H84.81Z" transform="translate(-3 -2.47)" style="fill:#d51f1b"/><path d="M132.38,74.19H118V2.47h14.43V74.19Z" transform="translate(-3 -2.47)" style="fill:#1d1d1b"/><path d="M151.42,74.19H137V2.47h14.43V74.19Z" transform="translate(-3 -2.47)" style="fill:#1d1d1b"/><path d="M199.16,56.28H168.8c0,5.87,3.09,9,9,9,3.09,0,5.31-1,6.9-3.73h13.88a16.6,16.6,0,0,1-7.69,10.54,24.89,24.89,0,0,1-13,3.41c-13.48,0-23.54-7.61-23.54-21.64,0-13.56,9.27-21.72,22.51-21.72,14.11,0,22.28,8.72,22.28,22.59v1.51ZM185.76,48a8.11,8.11,0,0,0-8.17-6.42c-4.2,0-7.69,2.22-8.56,6.42h16.72Z" transform="translate(-3 -2.47)" style="fill:#1d1d1b"/><path d="M216.39,40.18h0.16c2.77-5,7.53-7.22,13.16-7.22h2.77V46.84a11.71,11.71,0,0,0-6.1-1.35c-8,0-10,5.31-10,12.29V74.19H202V33.53h14.43v6.66Z" transform="translate(-3 -2.47)" style="fill:#1d1d1b"/><path d="M47.94,33a17.85,17.85,0,0,0-12.66,4.84A18.56,18.56,0,0,0,22.36,33C11.58,33,3,37.32,3,50.16V73H17V52.81c0-4.94.88-8.43,5.21-8.43,4.84,0,5.79,3.5,5.79,8.43V73H43V52.27c0-4.65.63-7.89,5.29-7.89,4.33,0,4.71,3.5,4.71,8.43V73H67V50.16C67,37.32,58.72,33,47.94,33Z" transform="translate(-3 -2.47)" style="fill:#1d1d1b"/></svg>