<?xml version="1.0" encoding="utf-8"?>
<!-- Generator: Adobe Illustrator 20.0.0, SVG Export Plug-In . SVG Version: 6.00 Build 0)  -->
<svg version="1.1" id="Layer_1" xmlns="http://www.w3.org/2000/svg" xmlns:xlink="http://www.w3.org/1999/xlink" x="0px" y="0px"
	 viewBox="0 0 617 500" style="enable-background:new 0 0 617 500;" xml:space="preserve">
<style type="text/css">
	.map-front{fill:#B2B2B2;}
	.map-back{fill:#808080;}
</style>
<g>
	<g>
		<path class="map-front" d="M492.8,500H16.7c-11,0-19-10.5-16.1-21l108.1-296.5c2-7.3,8.6-12.3,16.1-12.3h476.1c11,0,16,10.4,16,21
			L508.8,487.7C506.9,495,500.3,500,492.8,500L492.8,500z"/>
	</g>
	<path class="map-back" d="M534.8,74.5H266L212.8,0H18.5C8.3,0,0,8.3,0,18.4v464.5c0.7,0.1,2.4-9.9,3.2-9.9l105.5-290.5
		c2-7.3,8.6-12.3,16-12.3h428.4V92.9C553.2,82.7,544.9,74.5,534.8,74.5L534.8,74.5z"/>
</g>
</svg>
