<?xml version="1.0" standalone="no"?>
<!DOCTYPE svg PUBLIC "-//W3C//DTD SVG 20010904//EN"
 "http://www.w3.org/TR/2001/REC-SVG-20010904/DTD/svg10.dtd">
<svg version="1.0" xmlns="http://www.w3.org/2000/svg"
 width="500.000000pt" height="500.000000pt" viewBox="0 0 500.000000 500.000000"
 preserveAspectRatio="xMidYMid meet">
<metadata>
Created by potrace 1.11, written by Peter Selinger 2001-2013
</metadata>
<g transform="translate(0.000000,500.000000) scale(0.100000,-0.100000)"
fill="#000000" stroke="none">
<path d="M2378 4975 c-2 -1 -37 -5 -78 -8 -281 -22 -606 -129 -865 -285 -74
-44 -221 -149 -272 -194 -50 -44 -201 -195 -233 -233 -131 -158 -239 -328
-304 -475 -16 -36 -37 -83 -46 -105 -40 -89 -110 -350 -125 -461 -8 -65 -17
-172 -20 -236 l-2 -68 548 0 549 0 1 23 c12 277 136 539 333 706 72 60 79 65
141 103 161 97 332 140 537 133 64 -1 121 -6 126 -9 5 -3 26 -8 46 -12 20 -3
52 -12 71 -20 19 -8 35 -11 35 -7 0 5 4 3 8 -3 4 -6 22 -16 41 -22 40 -14 175
-90 207 -117 172 -144 269 -276 334 -454 17 -45 28 -81 25 -81 -2 0 -1 -10 4
-23 29 -76 30 -336 1 -411 -5 -14 -8 -26 -5 -26 2 0 -1 -15 -6 -32 -6 -18 -12
-40 -14 -49 -7 -32 -91 -210 -103 -219 -4 -3 -20 -24 -35 -48 -16 -24 -195
-212 -400 -418 l-371 -375 -431 431 -430 430 -388 -388 -387 -387 819 -819
820 -820 773 775 c772 773 859 867 968 1042 50 79 140 260 178 357 32 81 88
273 96 331 3 20 7 42 10 50 5 16 13 73 23 164 12 121 7 349 -11 475 -15 104
-21 136 -42 220 -156 629 -595 1144 -1194 1402 -117 50 -306 110 -396 124 -21
3 -42 8 -45 10 -3 1 -30 6 -60 9 -30 3 -67 8 -83 11 -29 6 -342 14 -348 9z"/>
</g>
</svg>
