<?xml version="1.0" encoding="utf-8"?>
<!-- Generator: Adobe Illustrator 21.1.0, SVG Export Plug-In . SVG Version: 6.00 Build 0)  -->
<svg version="1.1" id="Layer_1" xmlns="http://www.w3.org/2000/svg" xmlns:xlink="http://www.w3.org/1999/xlink" x="0px" y="0px"
	 viewBox="0 0 341.3 500.7" style="enable-background:new 0 0 341.3 500.7;" xml:space="preserve">
<style type="text/css">
	.st0{fill:#00EE94;}
</style>
<title>halls-icon</title>
<title>halls-icon</title>
<g>
	<path class="st0" d="M322.2,226L207.1,470.9c-6.6,13.9-21.2,22.5-36.4,22.5s-29.7-8.5-36.1-22.5L19.1,226
		c-8.2-17.4-10.4-37.3-10.4-56.6c0-89.5,72.5-162,162-162s162,72.5,162,162C332.7,188.6,330.5,208.6,322.2,226z M170.7,88.3
		c-44.6,0-81,36.4-81,81s36.4,81,81,81s81-36.4,81-81S215.3,88.3,170.7,88.3z"/>
</g>
</svg>
