<?xml version="1.0" encoding="utf-8"?>
<!-- Generator: Adobe Illustrator 21.1.0, SVG Export Plug-In . SVG Version: 6.00 Build 0)  -->
<svg version="1.1" id="Layer_1" xmlns="http://www.w3.org/2000/svg" xmlns:xlink="http://www.w3.org/1999/xlink" x="0px" y="0px"
	 viewBox="0 0 200 200" style="enable-background:new 0 0 200 200;" xml:space="preserve">
<path style="fill:#DA2A28;" d="M191.8,188.7c-6.9,6.9-18,6.9-24.9,0l-65.4-65.4L33,191.8c-6.9,6.9-18,6.9-24.9,0
	c-6.9-6.8-6.9-18,0-24.9l68.5-68.5L11.3,33.1c-6.9-6.9-6.9-18.1,0-24.9c6.9-6.9,18-6.9,24.9,0l65.4,65.4l62.3-62.3
	c6.8-6.9,18-6.9,24.9,0c6.9,6.9,6.9,18,0,24.9l-62.3,62.3l65.4,65.4C198.7,170.7,198.7,181.8,191.8,188.7L191.8,188.7z"/>
</svg>
