<?xml version="1.0" encoding="utf-8"?>
<!-- Generator: Adobe Illustrator 21.1.0, SVG Export Plug-In . SVG Version: 6.00 Build 0)  -->
<svg  version="1.1" id="Layer_1" xmlns="http://www.w3.org/2000/svg" xmlns:xlink="http://www.w3.org/1999/xlink" x="0px" y="0px"
	 viewBox="0 0 680.2 69.8" style="enable-background:new 0 0 680.2 69.8;display: block;margin: auto;width: 100%" xml:space="preserve">
<style type="text/css">
	.st0{fill:#1E1E1C;}
	.st1{fill:#E2231A;}
	.st2{fill:#2E2D2C;}
</style>
<g>
	<g>
		<path class="st0" d="M215.3,45.3v12.6l4.3-4.4h1.3l-4.4,4.5l5.8,5.9H221l-5.2-5.2l-0.6,0.6v4.6h-1V45.3H215.3z"/>
		<path class="st0" d="M224.2,49.3c0.2-0.2,0.4-0.3,0.7-0.3c0.3,0,0.5,0.1,0.7,0.3c0.2,0.2,0.3,0.4,0.3,0.7c0,0.3-0.1,0.5-0.3,0.7
			c-0.2,0.2-0.4,0.3-0.7,0.3c-0.3,0-0.5-0.1-0.7-0.3c-0.2-0.2-0.3-0.4-0.3-0.7C223.9,49.7,224,49.5,224.2,49.3z M225.3,53.5v10.4h-1
			V53.5H225.3z"/>
		<path class="st0" d="M230.3,54.4v9.5h-1v-9.5h-1.1v-0.9h1.1v-3.7h1v3.7h1.8v0.9H230.3z"/>
		<path class="st0" d="M241.9,54.5v1.4c-1-1.1-2.3-1.7-3.7-1.7c-1.2,0-2.2,0.4-3.1,1.3c-0.8,0.9-1.3,1.9-1.3,3.1
			c0,1.2,0.4,2.3,1.2,3.2c0.8,0.9,1.8,1.4,3,1.4c1.5,0,2.8-0.6,3.8-1.9v1.4c-1.1,1-2.4,1.4-3.8,1.4c-1.5,0-2.8-0.5-3.8-1.6
			c-1-1.1-1.5-2.3-1.5-3.9c0-1.5,0.5-2.8,1.5-3.8s2.3-1.6,3.8-1.6C239.7,53.2,240.9,53.7,241.9,54.5z"/>
		<path class="st0" d="M244.6,45.3h1v9.8h0c0.3-0.6,0.7-1,1.3-1.4c0.5-0.3,1.1-0.5,1.8-0.5c1.3,0,2.2,0.4,2.7,1.1
			c0.5,0.7,0.8,1.8,0.8,3.3v6.3h-1v-6.3c0-0.5,0-1-0.1-1.3c-0.1-0.4-0.2-0.7-0.3-1c-0.2-0.3-0.4-0.6-0.8-0.8
			c-0.4-0.2-0.8-0.2-1.3-0.2c-2,0-3,1.5-3,4.6v5.1h-1V45.3z"/>
		<path class="st0" d="M264.7,58.8h-9c0,1.3,0.3,2.4,1.1,3.2c0.8,0.8,1.8,1.2,3,1.2c0.8,0,1.5-0.2,2.1-0.6c0.6-0.4,1.2-1,1.5-1.7
			l0.9,0.5c-1,1.9-2.5,2.8-4.7,2.8c-1.5,0-2.7-0.5-3.6-1.6c-0.9-1.1-1.4-2.3-1.4-3.9c0-1.5,0.5-2.8,1.4-3.8c0.9-1.1,2.2-1.6,3.6-1.6
			c1.5,0,2.8,0.5,3.7,1.6C264.3,55.9,264.7,57.2,264.7,58.8z M255.7,57.8h8c-0.1-1-0.6-1.8-1.3-2.6c-0.7-0.7-1.6-1.1-2.7-1.1
			c-1.1,0-2,0.4-2.7,1.1C256.2,56,255.8,56.8,255.7,57.8z"/>
		<path class="st0" d="M268.2,53.5v1.6h0c0.3-0.6,0.7-1,1.3-1.4c0.5-0.3,1.1-0.5,1.8-0.5c1.3,0,2.2,0.4,2.7,1.1
			c0.5,0.7,0.8,1.8,0.8,3.3v6.3h-1v-6.3c0-0.5,0-1-0.1-1.3c-0.1-0.4-0.2-0.7-0.3-1c-0.2-0.3-0.4-0.6-0.8-0.8
			c-0.4-0.2-0.8-0.2-1.3-0.2c-2,0-3,1.5-3,4.6v5.1h-1V53.5H268.2z"/>
		<path class="st0" d="M294.3,53.5v10.4h-1V62h0c-0.4,0.6-0.9,1.2-1.7,1.5s-1.5,0.6-2.3,0.6c-1.5,0-2.8-0.5-3.7-1.6
			c-0.9-1.1-1.4-2.4-1.4-3.9c0-1.5,0.5-2.8,1.4-3.8c0.9-1,2.2-1.5,3.7-1.5c0.8,0,1.6,0.2,2.3,0.5c0.7,0.4,1.3,0.9,1.7,1.5h0v-1.8
			H294.3z M289.2,54.2c-1.2,0-2.1,0.4-2.9,1.3c-0.8,0.9-1.1,1.9-1.1,3.1c0,1.2,0.4,2.3,1.1,3.2c0.8,0.9,1.7,1.3,3,1.3
			c1.3,0,2.3-0.4,3-1.3c0.7-0.9,1.1-2,1.1-3.3c0-1.2-0.4-2.3-1.1-3.1C291.5,54.6,290.5,54.2,289.2,54.2z"/>
		<path class="st0" d="M298.8,53.5v1.6h0c0.3-0.6,0.7-1,1.3-1.4c0.5-0.3,1.1-0.5,1.8-0.5c1.3,0,2.2,0.4,2.7,1.1
			c0.5,0.7,0.8,1.8,0.8,3.3v6.3h-1v-6.3c0-0.5,0-1-0.1-1.3c-0.1-0.4-0.2-0.7-0.3-1c-0.2-0.3-0.4-0.6-0.8-0.8
			c-0.4-0.2-0.8-0.2-1.3-0.2c-2,0-3,1.5-3,4.6v5.1h-1V53.5H298.8z"/>
		<path class="st0" d="M317,63.9V62h0c-0.4,0.6-0.9,1.2-1.7,1.5s-1.5,0.6-2.3,0.6c-1.5,0-2.8-0.5-3.7-1.6c-0.9-1.1-1.4-2.4-1.4-3.9
			c0-1.5,0.5-2.8,1.4-3.8c0.9-1,2.2-1.5,3.7-1.5c0.8,0,1.6,0.2,2.3,0.5c0.7,0.4,1.3,0.9,1.7,1.5h0v-10h1v18.6H317z M312.9,63.1
			c1.3,0,2.3-0.4,3-1.3c0.7-0.9,1.1-2,1.1-3.3c0-1.2-0.4-2.3-1.1-3.1c-0.8-0.8-1.8-1.2-3-1.2c-1.2,0-2.1,0.4-2.9,1.3
			c-0.8,0.9-1.1,1.9-1.1,3.1c0,1.2,0.4,2.3,1.1,3.2C310.7,62.7,311.7,63.1,312.9,63.1z"/>
		<path class="st0" d="M329.6,54.4v9.5h-1v-9.5h-1.1v-0.9h1.1v-3.7h1v3.7h1.8v0.9H329.6z"/>
		<path class="st0" d="M342.3,53.5v10.4h-1V62h0c-0.4,0.6-0.9,1.2-1.7,1.5s-1.5,0.6-2.3,0.6c-1.5,0-2.8-0.5-3.7-1.6
			c-0.9-1.1-1.4-2.4-1.4-3.9c0-1.5,0.5-2.8,1.4-3.8c0.9-1,2.2-1.5,3.7-1.5c0.8,0,1.6,0.2,2.3,0.5c0.7,0.4,1.3,0.9,1.7,1.5h0v-1.8
			H342.3z M337.2,54.2c-1.2,0-2.1,0.4-2.9,1.3c-0.8,0.9-1.1,1.9-1.1,3.1c0,1.2,0.4,2.3,1.1,3.2c0.8,0.9,1.7,1.3,3,1.3
			c1.3,0,2.3-0.4,3-1.3c0.7-0.9,1.1-2,1.1-3.3c0-1.2-0.4-2.3-1.1-3.1C339.4,54.6,338.4,54.2,337.2,54.2z"/>
		<path class="st0" d="M345.8,63.9V45.3h1v10h0c0.4-0.6,1-1.1,1.7-1.5c0.7-0.4,1.5-0.5,2.3-0.5c1.5,0,2.8,0.5,3.7,1.5
			c0.9,1,1.4,2.3,1.4,3.8c0,1.6-0.5,2.9-1.4,3.9c-0.9,1.1-2.2,1.6-3.7,1.6c-0.8,0-1.6-0.2-2.3-0.6s-1.3-0.9-1.7-1.5h0v1.9H345.8z
			 M350.8,63.1c1.2,0,2.2-0.4,3-1.3c0.8-0.9,1.1-2,1.1-3.2c0-1.2-0.4-2.2-1.1-3.1c-0.8-0.9-1.7-1.3-2.9-1.3c-1.3,0-2.3,0.4-3,1.3
			c-0.7,0.8-1.1,1.9-1.1,3.2c0,1.3,0.4,2.3,1.1,3.2C348.6,62.7,349.6,63.1,350.8,63.1z"/>
		<path class="st0" d="M359.4,45.3v18.6h-1V45.3H359.4z"/>
		<path class="st0" d="M371.9,58.8h-9c0,1.3,0.3,2.4,1.1,3.2c0.8,0.8,1.8,1.2,3,1.2c0.8,0,1.5-0.2,2.1-0.6c0.6-0.4,1.2-1,1.5-1.7
			l0.9,0.5c-1,1.9-2.5,2.8-4.7,2.8c-1.5,0-2.7-0.5-3.6-1.6c-0.9-1.1-1.4-2.3-1.4-3.9c0-1.5,0.5-2.8,1.4-3.8c0.9-1.1,2.2-1.6,3.6-1.6
			c1.5,0,2.8,0.5,3.7,1.6C371.5,55.9,371.9,57.2,371.9,58.8z M362.9,57.8h8c-0.1-1-0.6-1.8-1.3-2.6c-0.7-0.7-1.6-1.1-2.7-1.1
			c-1.1,0-2,0.4-2.7,1.1C363.4,56,363,56.8,362.9,57.8z"/>
		<path class="st0" d="M373.8,53.5l3.7,8.5l3.7-9.1l3.7,9.1l3.6-8.5h1l-4.7,11l-3.7-9l-3.6,9l-4.7-11H373.8z"/>
		<path class="st0" d="M400.4,53.5v10.4h-1V62h0c-0.4,0.6-0.9,1.2-1.7,1.5c-0.7,0.4-1.5,0.6-2.3,0.6c-1.5,0-2.8-0.5-3.7-1.6
			c-0.9-1.1-1.4-2.4-1.4-3.9c0-1.5,0.5-2.8,1.4-3.8c0.9-1,2.2-1.5,3.7-1.5c0.8,0,1.6,0.2,2.3,0.5c0.7,0.4,1.3,0.9,1.7,1.5h0v-1.8
			H400.4z M395.3,54.2c-1.2,0-2.1,0.4-2.9,1.3c-0.8,0.9-1.1,1.9-1.1,3.1c0,1.2,0.4,2.3,1.1,3.2c0.8,0.9,1.7,1.3,3,1.3
			c1.3,0,2.3-0.4,3-1.3c0.7-0.9,1.1-2,1.1-3.3c0-1.2-0.4-2.3-1.1-3.1S396.6,54.2,395.3,54.2z"/>
		<path class="st0" d="M404.9,53.5v1.4h0c0.5-1.1,1.2-1.6,2.3-1.6c0.4,0,0.7,0.1,1.1,0.2l-0.5,0.9c-0.3-0.1-0.5-0.2-0.7-0.2
			c-0.3,0-0.6,0.1-0.8,0.2c-0.2,0.1-0.4,0.2-0.6,0.4c-0.2,0.1-0.3,0.3-0.4,0.6s-0.2,0.5-0.2,0.7c0,0.2-0.1,0.5-0.1,0.8
			c0,0.3,0,0.6,0,0.8c0,0.2,0,0.4,0,0.7c0,0.1,0,0.2,0,0.2v5.3h-1V53.5H404.9z"/>
		<path class="st0" d="M419.2,58.8h-9c0,1.3,0.3,2.4,1.1,3.2c0.8,0.8,1.8,1.2,3,1.2c0.8,0,1.5-0.2,2.1-0.6c0.6-0.4,1.2-1,1.5-1.7
			l0.9,0.5c-1,1.9-2.5,2.8-4.7,2.8c-1.5,0-2.7-0.5-3.6-1.6c-0.9-1.1-1.4-2.3-1.4-3.9c0-1.5,0.5-2.8,1.4-3.8c0.9-1.1,2.2-1.6,3.6-1.6
			c1.5,0,2.8,0.5,3.7,1.6C418.8,55.9,419.2,57.2,419.2,58.8z M410.2,57.8h8c-0.1-1-0.6-1.8-1.3-2.6c-0.7-0.7-1.6-1.1-2.7-1.1
			c-1.1,0-2,0.4-2.7,1.1C410.7,56,410.3,56.8,410.2,57.8z"/>
		<path class="st0" d="M429.7,54.4v9.5h-1v-9.5h-1.1v-0.9h1.1v-4.7c0-1.2,0.1-2.1,0.4-2.5c0.5-0.8,1.3-1.3,2.3-1.3
			c0.3,0,0.6,0.1,0.9,0.2v0.9c-0.5-0.1-0.8-0.1-0.8-0.1c-0.4,0-0.8,0.1-1,0.3c-0.3,0.2-0.4,0.4-0.5,0.8c-0.1,0.4-0.2,0.7-0.2,0.9
			c0,0.3,0,0.6,0,1.1v4.5h2.6v0.9H429.7z"/>
		<path class="st0" d="M438.4,53.2c1.5,0,2.8,0.5,3.9,1.6s1.6,2.3,1.6,3.9c0,1.5-0.5,2.8-1.6,3.9s-2.4,1.6-3.9,1.6
			c-1.5,0-2.8-0.5-3.8-1.6c-1.1-1.1-1.6-2.3-1.6-3.8c0-1.5,0.5-2.8,1.6-3.9C435.7,53.8,436.9,53.2,438.4,53.2z M438.4,54.2
			c-1.2,0-2.2,0.4-3.1,1.3c-0.8,0.9-1.2,1.9-1.2,3.2c0,1.2,0.4,2.2,1.2,3.1c0.8,0.9,1.9,1.3,3.1,1.3c1.3,0,2.3-0.4,3.2-1.3
			c0.9-0.9,1.3-1.9,1.3-3.2c0-1.3-0.4-2.3-1.3-3.2C440.7,54.6,439.7,54.2,438.4,54.2z"/>
		<path class="st0" d="M447.4,53.5v1.4h0c0.5-1.1,1.2-1.6,2.3-1.6c0.4,0,0.7,0.1,1.1,0.2l-0.5,0.9c-0.3-0.1-0.5-0.2-0.7-0.2
			c-0.3,0-0.6,0.1-0.8,0.2c-0.2,0.1-0.4,0.2-0.6,0.4c-0.2,0.1-0.3,0.3-0.4,0.6s-0.2,0.5-0.2,0.7c0,0.2-0.1,0.5-0.1,0.8
			c0,0.3,0,0.6,0,0.8c0,0.2,0,0.4,0,0.7c0,0.1,0,0.2,0,0.2v5.3h-1V53.5H447.4z"/>
		<path class="st0" d="M460.6,53.5v1.4h0c0.5-1.1,1.2-1.6,2.3-1.6c0.4,0,0.7,0.1,1.1,0.2l-0.5,0.9c-0.3-0.1-0.5-0.2-0.7-0.2
			c-0.3,0-0.6,0.1-0.8,0.2c-0.2,0.1-0.4,0.2-0.6,0.4c-0.2,0.1-0.3,0.3-0.4,0.6s-0.2,0.5-0.2,0.7c0,0.2-0.1,0.5-0.1,0.8
			c0,0.3,0,0.6,0,0.8c0,0.2,0,0.4,0,0.7c0,0.1,0,0.2,0,0.2v5.3h-1V53.5H460.6z"/>
		<path class="st0" d="M474.9,58.8h-9c0,1.3,0.3,2.4,1.1,3.2c0.8,0.8,1.8,1.2,3,1.2c0.8,0,1.5-0.2,2.1-0.6c0.6-0.4,1.2-1,1.5-1.7
			l0.9,0.5c-1,1.9-2.5,2.8-4.7,2.8c-1.5,0-2.7-0.5-3.6-1.6c-0.9-1.1-1.4-2.3-1.4-3.9c0-1.5,0.5-2.8,1.4-3.8c0.9-1.1,2.2-1.6,3.6-1.6
			c1.5,0,2.8,0.5,3.7,1.6C474.5,55.9,474.9,57.2,474.9,58.8z M465.9,57.8h8c-0.1-1-0.6-1.8-1.3-2.6c-0.7-0.7-1.6-1.1-2.7-1.1
			c-1.1,0-2,0.4-2.7,1.1C466.4,56,466,56.8,465.9,57.8z"/>
		<path class="st0" d="M478.5,54.4v9.5h-1v-9.5h-1.1v-0.9h1.1v-3.7h1v3.7h1.8v0.9H478.5z"/>
		<path class="st0" d="M491.2,53.5v10.4h-1V62h0c-0.4,0.6-0.9,1.2-1.7,1.5c-0.7,0.4-1.5,0.6-2.3,0.6c-1.5,0-2.8-0.5-3.7-1.6
			c-0.9-1.1-1.4-2.4-1.4-3.9c0-1.5,0.5-2.8,1.4-3.8c0.9-1,2.2-1.5,3.7-1.5c0.8,0,1.6,0.2,2.3,0.5c0.7,0.4,1.3,0.9,1.7,1.5h0v-1.8
			H491.2z M486.1,54.2c-1.2,0-2.1,0.4-2.9,1.3c-0.8,0.9-1.1,1.9-1.1,3.1c0,1.2,0.4,2.3,1.1,3.2c0.8,0.9,1.7,1.3,3,1.3
			c1.3,0,2.3-0.4,3-1.3c0.7-0.9,1.1-2,1.1-3.3c0-1.2-0.4-2.3-1.1-3.1S487.3,54.2,486.1,54.2z"/>
		<path class="st0" d="M494.9,49.3c0.2-0.2,0.4-0.3,0.7-0.3c0.3,0,0.5,0.1,0.7,0.3c0.2,0.2,0.3,0.4,0.3,0.7c0,0.3-0.1,0.5-0.3,0.7
			c-0.2,0.2-0.4,0.3-0.7,0.3c-0.3,0-0.5-0.1-0.7-0.3c-0.2-0.2-0.3-0.4-0.3-0.7C494.7,49.7,494.8,49.5,494.9,49.3z M496.1,53.5v10.4
			h-1V53.5H496.1z"/>
		<path class="st0" d="M501,45.3v18.6h-1V45.3H501z"/>
		<path class="st0" d="M506.1,62.2l1,0.3l-1.9,5.1l-0.7-0.2L506.1,62.2z"/>
		<path class="st0" d="M526.4,54.5v1.4c-1-1.1-2.3-1.7-3.7-1.7c-1.2,0-2.2,0.4-3.1,1.3c-0.8,0.9-1.2,1.9-1.2,3.1
			c0,1.2,0.4,2.3,1.2,3.2c0.8,0.9,1.8,1.4,3,1.4c1.5,0,2.8-0.6,3.8-1.9v1.4c-1.1,1-2.4,1.4-3.8,1.4c-1.5,0-2.8-0.5-3.8-1.6
			c-1-1.1-1.5-2.3-1.5-3.9c0-1.5,0.5-2.8,1.5-3.8s2.3-1.6,3.8-1.6C524.2,53.2,525.4,53.7,526.4,54.5z"/>
		<path class="st0" d="M538.3,53.5v10.4h-1V62h0c-0.4,0.6-0.9,1.2-1.7,1.5c-0.7,0.4-1.5,0.6-2.3,0.6c-1.5,0-2.8-0.5-3.7-1.6
			c-0.9-1.1-1.4-2.4-1.4-3.9c0-1.5,0.5-2.8,1.4-3.8c0.9-1,2.2-1.5,3.7-1.5c0.8,0,1.6,0.2,2.3,0.5c0.7,0.4,1.3,0.9,1.7,1.5h0v-1.8
			H538.3z M533.2,54.2c-1.2,0-2.1,0.4-2.9,1.3c-0.8,0.9-1.1,1.9-1.1,3.1c0,1.2,0.4,2.3,1.1,3.2c0.8,0.9,1.7,1.3,3,1.3
			c1.3,0,2.3-0.4,3-1.3c0.7-0.9,1.1-2,1.1-3.3c0-1.2-0.4-2.3-1.1-3.1S534.4,54.2,533.2,54.2z"/>
		<path class="st0" d="M542.9,54.4v9.5h-1v-9.5h-1.1v-0.9h1.1v-3.7h1v3.7h1.8v0.9H542.9z"/>
		<path class="st0" d="M555.5,58.8h-9c0,1.3,0.3,2.4,1.1,3.2c0.8,0.8,1.8,1.2,3,1.2c0.8,0,1.5-0.2,2.1-0.6c0.6-0.4,1.2-1,1.5-1.7
			l0.9,0.5c-1,1.9-2.5,2.8-4.7,2.8c-1.5,0-2.7-0.5-3.6-1.6c-0.9-1.1-1.4-2.3-1.4-3.9c0-1.5,0.5-2.8,1.4-3.8c0.9-1.1,2.2-1.6,3.6-1.6
			c1.5,0,2.8,0.5,3.7,1.6C555.1,55.9,555.5,57.2,555.5,58.8z M546.5,57.8h8c-0.1-1-0.6-1.8-1.3-2.6c-0.7-0.7-1.6-1.1-2.7-1.1
			c-1.1,0-2,0.4-2.7,1.1C547,56,546.6,56.8,546.5,57.8z"/>
		<path class="st0" d="M559,53.5v1.4h0c0.5-1.1,1.2-1.6,2.3-1.6c0.4,0,0.7,0.1,1.1,0.2l-0.5,0.9c-0.3-0.1-0.5-0.2-0.7-0.2
			c-0.3,0-0.6,0.1-0.8,0.2c-0.2,0.1-0.4,0.2-0.6,0.4c-0.2,0.1-0.3,0.3-0.4,0.6s-0.2,0.5-0.2,0.7c0,0.2-0.1,0.5-0.1,0.8
			c0,0.3,0,0.6,0,0.8c0,0.2,0,0.4,0,0.7c0,0.1,0,0.2,0,0.2v5.3h-1V53.5H559z"/>
		<path class="st0" d="M564.5,49.3c0.2-0.2,0.4-0.3,0.7-0.3c0.3,0,0.5,0.1,0.7,0.3c0.2,0.2,0.3,0.4,0.3,0.7c0,0.3-0.1,0.5-0.3,0.7
			c-0.2,0.2-0.4,0.3-0.7,0.3c-0.3,0-0.5-0.1-0.7-0.3c-0.2-0.2-0.3-0.4-0.3-0.7C564.2,49.7,564.3,49.5,564.5,49.3z M565.6,53.5v10.4
			h-1V53.5H565.6z"/>
		<path class="st0" d="M570.5,53.5v1.6h0c0.3-0.6,0.7-1,1.3-1.4c0.5-0.3,1.1-0.5,1.8-0.5c1.3,0,2.2,0.4,2.7,1.1
			c0.5,0.7,0.8,1.8,0.8,3.3v6.3h-1v-6.3c0-0.5,0-1-0.1-1.3c-0.1-0.4-0.2-0.7-0.3-1c-0.2-0.3-0.4-0.6-0.8-0.8
			c-0.4-0.2-0.8-0.2-1.3-0.2c-2,0-3,1.5-3,4.6v5.1h-1V53.5H570.5z"/>
		<path class="st0" d="M589.8,53.5v9.9c0,0.7,0,1.2,0,1.6c0,0.4-0.1,0.9-0.3,1.4c-0.2,0.5-0.4,1-0.7,1.4c-1,1.3-2.4,2-4.1,2
			c-1.4,0-2.6-0.4-3.6-1.2s-1.5-1.9-1.6-3.3h1c0.1,1.1,0.5,1.9,1.2,2.5c0.8,0.6,1.7,1,2.8,1c1.5,0,2.6-0.5,3.3-1.6
			c0.6-0.9,0.9-2.2,0.9-3.9v-1.3h0c-0.5,0.6-1.1,1.1-1.8,1.5c-0.7,0.4-1.5,0.6-2.3,0.6c-1.5,0-2.7-0.5-3.6-1.6s-1.4-2.4-1.4-3.9
			c0-1.5,0.5-2.8,1.5-3.8c1-1,2.2-1.6,3.7-1.6c1.6,0,2.9,0.7,3.9,2h0v-1.8H589.8z M584.7,54.2c-1.2,0-2.1,0.4-2.9,1.3
			c-0.8,0.9-1.1,1.9-1.1,3.1c0,1.2,0.4,2.3,1.1,3.2c0.8,0.9,1.7,1.3,3,1.3c1.3,0,2.3-0.4,3-1.3c0.7-0.9,1.1-2,1.1-3.3
			c0-1.2-0.4-2.3-1.1-3.1C587,54.6,586,54.2,584.7,54.2z"/>
		<path class="st0" d="M609.4,53.5v10.4h-1V62h0c-0.4,0.6-0.9,1.2-1.7,1.5c-0.7,0.4-1.5,0.6-2.3,0.6c-1.5,0-2.8-0.5-3.7-1.6
			c-0.9-1.1-1.4-2.4-1.4-3.9c0-1.5,0.5-2.8,1.4-3.8c0.9-1,2.2-1.5,3.7-1.5c0.8,0,1.6,0.2,2.3,0.5c0.7,0.4,1.3,0.9,1.7,1.5h0v-1.8
			H609.4z M604.3,54.2c-1.2,0-2.1,0.4-2.9,1.3c-0.8,0.9-1.1,1.9-1.1,3.1c0,1.2,0.4,2.3,1.1,3.2c0.8,0.9,1.7,1.3,3,1.3
			c1.3,0,2.3-0.4,3-1.3c0.7-0.9,1.1-2,1.1-3.3c0-1.2-0.4-2.3-1.1-3.1S605.6,54.2,604.3,54.2z"/>
		<path class="st0" d="M613.9,53.5v1.6h0c0.3-0.6,0.7-1,1.3-1.4c0.5-0.3,1.1-0.5,1.8-0.5c1.3,0,2.2,0.4,2.7,1.1
			c0.5,0.7,0.8,1.8,0.8,3.3v6.3h-1v-6.3c0-0.5,0-1-0.1-1.3c-0.1-0.4-0.2-0.7-0.3-1c-0.2-0.3-0.4-0.6-0.8-0.8
			c-0.4-0.2-0.8-0.2-1.3-0.2c-2,0-3,1.5-3,4.6v5.1h-1V53.5H613.9z"/>
		<path class="st0" d="M632.1,63.9V62h0c-0.4,0.6-0.9,1.2-1.7,1.5c-0.7,0.4-1.5,0.6-2.3,0.6c-1.5,0-2.8-0.5-3.7-1.6
			c-0.9-1.1-1.4-2.4-1.4-3.9c0-1.5,0.5-2.8,1.4-3.8c0.9-1,2.2-1.5,3.7-1.5c0.8,0,1.6,0.2,2.3,0.5c0.7,0.4,1.3,0.9,1.7,1.5h0v-10h1
			v18.6H632.1z M628,63.1c1.3,0,2.3-0.4,3-1.3c0.7-0.9,1.1-2,1.1-3.3c0-1.2-0.4-2.3-1.1-3.1s-1.8-1.2-3-1.2c-1.2,0-2.1,0.4-2.9,1.3
			c-0.8,0.9-1.1,1.9-1.1,3.1c0,1.2,0.4,2.3,1.1,3.2C625.8,62.7,626.8,63.1,628,63.1z"/>
		<path class="st0" d="M648,63.9h-4.3v-17h3.4c0.8,0,1.4,0.1,2,0.2c0.5,0.1,1.1,0.4,1.5,0.8c0.9,0.8,1.4,2,1.4,3.5
			c0,1.6-0.7,2.7-2,3.5c1.1,0.2,1.9,0.7,2.5,1.5c0.6,0.8,1,1.7,1,2.8c0,1.4-0.5,2.6-1.6,3.5C651,63.5,649.7,63.9,648,63.9z
			 M644.7,47.9v6.7h1.9c0,0,0.2,0,0.4,0c0.2,0,0.3,0,0.4,0s0.2,0,0.3,0c0.2,0,0.3,0,0.4,0s0.2,0,0.3,0c0.1,0,0.3,0,0.3-0.1
			c0.1,0,0.2-0.1,0.3-0.1s0.2-0.1,0.3-0.2c0.1-0.1,0.2-0.1,0.3-0.2c0.8-0.6,1.3-1.5,1.3-2.7c0-1.3-0.5-2.2-1.4-2.8
			c-0.6-0.4-1.5-0.5-2.9-0.5H644.7z M644.7,55.6v7.3h2.6c0.6,0,1,0,1.3,0c0.2,0,0.6-0.1,1-0.2c0.5-0.1,0.8-0.3,1.2-0.5
			c1.1-0.8,1.7-1.8,1.7-3c0-0.6-0.2-1.2-0.5-1.8c-0.3-0.6-0.7-1-1.3-1.2c-0.7-0.4-1.9-0.5-3.6-0.5H644.7z"/>
		<path class="st0" d="M658.5,62.9h8.1v1h-10.5l6.3-7c1.2-1.3,2-2.3,2.4-3c0.5-0.8,0.7-1.6,0.7-2.3c0-1.1-0.4-2-1.2-2.8
			c-0.8-0.8-1.7-1.1-2.8-1.1c-1.2,0-2.1,0.4-2.9,1.1c-0.8,0.8-1.1,1.7-1.1,2.9h-1.1c0-1.4,0.4-2.5,1.1-3.2c0.5-0.6,1.1-1,1.8-1.3
			c0.7-0.3,1.5-0.5,2.2-0.5c1.4,0,2.6,0.5,3.6,1.4c1,1,1.5,2.1,1.5,3.5c0,0.5-0.1,1.1-0.3,1.6c-0.2,0.5-0.5,1-0.8,1.6
			s-0.7,1-0.9,1.3c-0.2,0.3-0.6,0.7-1.2,1.3L658.5,62.9z"/>
		<path class="st0" d="M674.7,63.9h-4.3v-17h3.4c0.8,0,1.4,0.1,2,0.2c0.5,0.1,1.1,0.4,1.5,0.8c0.9,0.8,1.4,2,1.4,3.5
			c0,1.6-0.7,2.7-2,3.5c1.1,0.2,1.9,0.7,2.5,1.5c0.6,0.8,1,1.7,1,2.8c0,1.4-0.5,2.6-1.6,3.5C677.7,63.5,676.3,63.9,674.7,63.9z
			 M671.4,47.9v6.7h1.9c0,0,0.2,0,0.4,0c0.2,0,0.3,0,0.4,0s0.2,0,0.3,0c0.2,0,0.3,0,0.4,0s0.2,0,0.3,0c0.1,0,0.3,0,0.3-0.1
			c0.1,0,0.2-0.1,0.3-0.1s0.2-0.1,0.3-0.2c0.1-0.1,0.2-0.1,0.3-0.2c0.8-0.6,1.3-1.5,1.3-2.7c0-1.3-0.5-2.2-1.4-2.8
			c-0.6-0.4-1.5-0.5-2.9-0.5H671.4z M671.4,55.6v7.3h2.6c0.6,0,1,0,1.3,0c0.2,0,0.6-0.1,1-0.2c0.5-0.1,0.8-0.3,1.2-0.5
			c1.1-0.8,1.7-1.8,1.7-3c0-0.6-0.2-1.2-0.5-1.8c-0.3-0.6-0.7-1-1.3-1.2c-0.7-0.4-1.9-0.5-3.6-0.5H671.4z"/>
	</g>
	<g>
		<g>
			<path class="st1" d="M80.6,65.1c-11-0.4-19.2-4.5-19.2-13.7V28h12.7v21c0,3.8,2.4,5.7,6.3,5.8c3.8,0.1,6.1-2.6,6.1-5.9V28H99
				v23.7C99,60.5,88.8,65.4,80.6,65.1z"/>
			<path class="st2" d="M102.7,63.9V0h12.8v63.9H102.7z"/>
			<path class="st2" d="M118.7,63.9V0h12.8v63.9H118.7z"/>
			<path class="st2" d="M147.5,48.4c-0.2,4,2.4,8.1,7.4,8.1c2.6,0,4.9-0.8,6.6-3.5h11.7l-1,2.7c-2.4,6.1-9,9.6-17.8,9.6
				c-11.4,0-19.7-8.1-19.7-19.2c0-10.5,8.6-19.1,19.6-19.1c9,0,18.9,6.1,19.2,16.1l0.2,5.3H147.5z M154.7,35.4c-3.2,0-6.1,1.7-7,5.4
				H162C160.8,37.4,158.4,35.4,154.7,35.4z"/>
			<path class="st2" d="M196.9,39c-4.7,0.4-7.1,5.2-7.1,9.9v15h-12.7V28H190v6.2l1.3-1.6c2-2.5,4-3.6,7.2-4.4c2-0.5,3.4-0.6,5.5-0.3
				v12.1C202.1,39,200.1,38.7,196.9,39z"/>
			<g id="XMLID_2_">
				<g>
					<path class="st2" d="M57.5,44.2v19.7H44.9l0-21.5c0-2.8-2.2-5.1-4.9-5.1s-4.9,2.3-4.9,5.1v21.5H22.4V42.4
						c0-2.8-2.2-5.1-4.9-5.1s-4.9,2.3-4.9,5.1v21.5H0l0-19.7C0,31.2,7.8,27,17.5,27c4.3,0,8.3,1.7,11.3,4.4c3-2.7,7-4.4,11.3-4.4
						C49.7,27,57.5,30.4,57.5,44.2z"/>
				</g>
				<g>
				</g>
			</g>
		</g>
	</g>
</g>
</svg>
