<?xml version="1.0" encoding="utf-8"?>
<!-- Generator: Adobe Illustrator 20.0.0, SVG Export Plug-In . SVG Version: 6.00 Build 0)  -->
<svg version="1.1" id="Layer_1" xmlns="http://www.w3.org/2000/svg" xmlns:xlink="http://www.w3.org/1999/xlink" x="0px" y="0px"
	 viewBox="0 0 88.2 115.8" style="enable-background:new 0 0 88.2 115.8;" xml:space="preserve">
<style type="text/css">
	.st0{fill:#E6E6E6;}
	.st1{fill:#FFFFFF;}
</style>
<g>
	<g>
		<g>
			<path class="st0" d="M6,97.1c-0.2-0.3-0.3-0.5-0.6-0.7C5,96,4.6,95.8,4,95.8c-1.2,0-2.5,1.1-2.5,2.9c0,1.9,1.2,3,2.5,3
				c0.6,0,1.1-0.2,1.5-0.5c0.4-0.3,0.7-0.8,0.8-1.3H3.4v-1.4H8c0,0.6-0.1,1.4-0.3,2.2c-0.7,1.8-2.3,2.6-3.7,2.6c-2.3,0-4-2-4-4.5
				c0-2.6,1.8-4.5,4-4.5c1.7,0,3.2,1.2,3.7,2.8H6z"/>
			<path class="st0" d="M9,94.5h2.3c1.2,0,1.9,0.2,2.3,0.5c0.6,0.5,1,1.4,1,2.3c0,0.6-0.2,1.2-0.4,1.6c-0.3,0.5-0.8,0.8-1.2,0.9
				l1.7,3.2H13l-2-4h0.3c0.5,0,1,0,1.4-0.3c0.3-0.3,0.5-0.7,0.5-1.3c0-0.5-0.2-1-0.6-1.2c-0.3-0.2-0.6-0.3-1.1-0.3h-0.9v7.1H9V94.5z
				"/>
			<path class="st0" d="M15.2,98.8c0-2.8,1.9-4.6,4-4.6c2.3,0,4,2,4,4.5s-1.7,4.5-4,4.5C16.8,103.3,15.2,101.2,15.2,98.8L15.2,98.8z
				 M16.7,98.8c0,1.6,1,3,2.5,3c1.5,0,2.4-1.5,2.4-2.9c0-1.4-0.9-3-2.4-3C17.6,95.8,16.7,97.2,16.7,98.8L16.7,98.8z"/>
			<path class="st0" d="M24.2,94.5h4.2V96h-2.7v2h2.7v1.5h-2.7v2.1h2.7v1.5h-4.2V94.5z"/>
			<path class="st0" d="M31.9,94.5c1.3,0,1.8,0.2,2.2,0.6c0.6,0.5,0.9,1.4,0.9,2.2c0,0.9-0.3,1.7-0.8,2.2c-0.5,0.5-1,0.7-2.1,0.7
				h-0.9v3h-1.5v-8.6H31.9z M31.2,98.6h0.9c0.3,0,0.7,0,1-0.2c0.3-0.2,0.5-0.5,0.5-1.1c0-0.5-0.2-0.9-0.5-1.1C32.7,96,32.4,96,32,96
				h-0.8V98.6z"/>
			<path class="st0" d="M37,100.4c0.1,1.2,0.7,1.4,1.1,1.4c0.6,0,1-0.5,1-1.1c0-0.7-0.5-0.9-1.6-1.4c-0.6-0.2-1.9-0.8-1.9-2.4
				c0-1.7,1.3-2.6,2.5-2.6c1,0,2.3,0.6,2.4,2.5H39c-0.1-0.4-0.2-1.1-0.9-1.1c-0.5,0-0.9,0.4-0.9,1c0,0.6,0.4,0.8,1.7,1.4
				c1.2,0.6,1.8,1.2,1.8,2.4c0,1.4-0.7,2.7-2.5,2.7c-1.7,0-2.6-1.2-2.6-2.8H37z"/>
			<path class="st0" d="M43.8,94.5c1.3,0,1.8,0.2,2.2,0.6c0.6,0.5,0.9,1.4,0.9,2.2c0,0.9-0.3,1.7-0.8,2.2c-0.5,0.5-1,0.7-2.1,0.7
				h-0.9v3h-1.5v-8.6H43.8z M43.1,98.6H44c0.3,0,0.7,0,1-0.2c0.3-0.2,0.5-0.5,0.5-1.1c0-0.5-0.2-0.9-0.5-1.1c-0.3-0.2-0.7-0.2-1-0.2
				h-0.8V98.6z"/>
			<path class="st0" d="M47.7,94.5H50c1.2,0,1.9,0.2,2.3,0.5c0.6,0.5,1,1.4,1,2.3c0,0.6-0.2,1.2-0.4,1.6c-0.3,0.5-0.8,0.8-1.2,0.9
				l1.7,3.2h-1.6l-2-4h0.3c0.5,0,1,0,1.4-0.3c0.3-0.3,0.5-0.7,0.5-1.3c0-0.5-0.2-1-0.6-1.2C51,96.1,50.6,96,50.2,96h-0.9v7.1h-1.5
				V94.5z"/>
			<path class="st0" d="M55.2,103.1h-1.7l3.1-8.6H58l3,8.6h-1.7l-0.6-1.7h-3L55.2,103.1z M57.2,96.5l-1.1,3.5h2.2L57.2,96.5z"/>
			<path class="st0" d="M62,94.5h1.5v4l2.5-4h1.6l-2.7,4.3l3,4.3H66l-2.5-3.9v3.9H62V94.5z"/>
			<path class="st0" d="M69.6,96h-1.6v-1.5h4.8V96h-1.6v7.1h-1.5V96z"/>
			<path class="st0" d="M73.5,94.5h1.5v8.6h-1.5V94.5z"/>
			<path class="st0" d="M80.6,99.9c0,0.9-0.1,1.5-0.2,1.9c-0.2,0.4-0.4,0.7-0.8,1c-0.4,0.3-1,0.5-1.4,0.5c-0.3,0-2-0.1-2.3-2.1
				c0-0.2,0-0.4-0.1-0.6h1.6c0,0.1,0,0.2,0,0.2c0.1,0.6,0.4,0.9,0.8,0.9c0.4,0,0.6-0.3,0.7-0.6c0.1-0.3,0.1-0.6,0.1-0.8v-5.9h1.5
				V99.9z"/>
			<path class="st0" d="M82.3,94.5h1.5v4l2.5-4h1.6l-2.7,4.3l3,4.3h-1.9l-2.5-3.9v3.9h-1.5V94.5z"/>
		</g>
		<g>
			<path class="st1" d="M1.2,107.1h4.5v1.5H2.9v2h2.7v1.5H2.9v3.5H1.2V107.1z"/>
			<path class="st1" d="M11.7,107.1h2.6c1.3,0,2.1,0.2,2.5,0.5c0.7,0.5,1.1,1.4,1.1,2.3c0,0.6-0.2,1.2-0.5,1.6
				c-0.4,0.5-0.9,0.8-1.4,0.9l1.9,3.2h-1.8l-2.3-4h0.3c0.6,0,1.2,0,1.5-0.3c0.3-0.3,0.5-0.7,0.5-1.2s-0.3-1-0.6-1.2
				c-0.3-0.2-0.7-0.3-1.2-0.3h-1v7h-1.7V107.1z"/>
			<path class="st1" d="M25.5,107.1v5.2c0,0.4,0,0.9,0.2,1.3c0.2,0.4,0.6,0.6,1.2,0.6c0.6,0,1-0.3,1.1-0.6c0.2-0.4,0.2-0.9,0.2-1.3
				v-5.2h1.7v5.2c0,1.3-0.2,2-0.9,2.6c-0.5,0.5-1.2,0.8-2.2,0.8c-0.6,0-1.6-0.2-2.2-0.8c-0.8-0.7-0.9-1.5-0.9-2.6v-5.2H25.5z"/>
			<path class="st1" d="M36.3,107.1H38v8.5h-1.7V107.1z"/>
			<path class="st1" d="M45.6,108.6h-1.8v-1.5h5.4v1.5h-1.8v7h-1.7V108.6z"/>
			<path class="st1" d="M54.8,115.7v-8.5h1.7v3.4h3.3v-3.4h1.7v8.5h-1.7v-3.6h-3.3v3.6H54.8z"/>
			<path class="st1" d="M67.6,111.5c0-2.7,2.1-4.5,4.5-4.5c2.6,0,4.5,2,4.5,4.4c0,2.4-1.9,4.4-4.5,4.4
				C69.4,115.8,67.6,113.8,67.6,111.5L67.6,111.5z M69.3,111.4c0,1.6,1.1,2.9,2.8,2.9c1.7,0,2.7-1.5,2.7-2.9c0-1.4-1-2.9-2.8-2.9
				C70.3,108.5,69.3,109.9,69.3,111.4L69.3,111.4z"/>
			<path class="st1" d="M82.5,107.1h4.5v1.5h-2.8v2H87v1.5h-2.7v3.5h-1.7V107.1z"/>
		</g>
	</g>
	<g>
		<g>
			<rect x="30.2" y="0.8" class="st0" width="3" height="34"/>
			<path class="st0" d="M34,35.7h-4.6V0H34V35.7z M31,34h1.3V1.7H31V34z"/>
		</g>
		<g>
			<polygon class="st0" points="29.9,87.3 32.9,87.3 32.9,72.1 29.9,73.9 			"/>
			<path class="st0" d="M33.7,88.1h-4.6V73.4l4.6-2.8V88.1z M30.7,86.4H32V73.6l-1.3,0.8V86.4z"/>
		</g>
		<g>
			<rect x="54.3" y="54" class="st0" width="2.9" height="33.3"/>
			<path class="st0" d="M58,88.1h-4.5v-35H58V88.1z M55.1,86.4h1.2V54.8h-1.2V86.4z"/>
		</g>
		<g>
			<g>
				<rect x="0.9" y="42.7" class="st0" width="86.3" height="2.9"/>
				<path class="st0" d="M88.1,46.4h-88v-4.5h88V46.4z M1.8,44.7h84.7v-1.2H1.8V44.7z"/>
			</g>
			<g>
				<path class="st0" d="M44.8,45.4l-2.5-1.5l7.9-13c2.6-4.2,5.1-7,8-8.9c3.2-2.1,7-3.1,11.6-3.1h17.5v3H69.8c-4.1,0-7.2,0.8-10,2.7
					c-2.5,1.6-4.7,4.2-7.1,8L44.8,45.4z"/>
				<path class="st0" d="M45.1,46.5l-4-2.4l8.4-13.7c2.6-4.3,5.2-7.2,8.2-9.2C61.1,19.1,65,18,69.8,18h18.3v4.6H69.8
					c-3.9,0-6.9,0.8-9.5,2.5c-2.4,1.6-4.6,4-6.8,7.7L45.1,46.5z M43.5,43.6l1.1,0.7L52,32c2.4-3.9,4.7-6.5,7.3-8.2
					c2.9-1.9,6.2-2.8,10.5-2.8h16.6v-1.3H69.8c-4.4,0-8.1,1-11.2,3c-2.8,1.8-5.2,4.6-7.7,8.6L43.5,43.6z"/>
			</g>
			<g>
				<path class="st0" d="M17.7,69.8H0.8v-3h16.8c4.1,0,7.2-0.8,10-2.7c2.5-1.6,4.7-4.2,7.1-8c4.5-7.3,7.9-12.9,7.9-13l2.5,1.5
					c0,0.1-3.5,5.7-7.9,13c-2.6,4.2-5.1,7-8,8.9C26.1,68.8,22.3,69.8,17.7,69.8z"/>
				<path class="st0" d="M17.7,70.7H0V66h17.7c3.9,0,6.9-0.8,9.5-2.5c2.4-1.6,4.6-4,6.8-7.7c3.5-5.7,6.3-10.4,7.4-12.2l0.9-1.5
					l4,2.4l-0.4,0.7c-0.1,0.1-3.5,5.7-7.9,12.9c-2.6,4.3-5.2,7.2-8.2,9.2C26.4,69.6,22.4,70.7,17.7,70.7z M1.7,69h16
					c4.4,0,8.1-1,11.2-3c2.8-1.8,5.2-4.6,7.7-8.6c3.5-5.8,6.4-10.5,7.5-12.2l-1.1-0.7l-0.1,0.1c-1.1,1.8-4,6.5-7.4,12.2
					c-2.4,3.9-4.7,6.5-7.3,8.3c-2.9,1.9-6.2,2.8-10.5,2.8h-16V69z"/>
			</g>
		</g>
		<g>
			<polygon class="st0" points="54.3,16.5 57.1,14.8 57.1,0.8 54.3,0.8 			"/>
			<path class="st0" d="M53.4,18V0H58v15.2L53.4,18z M55.1,1.7V15l1.2-0.7V1.7H55.1z"/>
		</g>
	</g>
</g>
</svg>
