<?xml version="1.0" encoding="utf-8"?>
<!-- Generator: Adobe Illustrator 20.0.0, SVG Export Plug-In . SVG Version: 6.00 Build 0)  -->
<svg version="1.1" id="Layer_1" xmlns="http://www.w3.org/2000/svg" xmlns:xlink="http://www.w3.org/1999/xlink" x="0px" y="0px"
	 viewBox="0 0 151.7 41.4" style="enable-background:new 0 0 151.7 41.4;" xml:space="preserve">
<style type="text/css">
	.st0{fill:#333333;}
	.st1{fill:#8D8D8D;}
</style>
<g>
	<g>
		<path class="st0" d="M55.2,13.7c-0.2-0.3-0.4-0.6-0.7-0.8c-0.5-0.4-1-0.7-1.7-0.7c-1.4,0-2.9,1.2-2.9,3.4c0,2.3,1.5,3.5,2.9,3.5
			c0.7,0,1.3-0.2,1.8-0.6c0.5-0.4,0.8-0.9,0.9-1.5h-3.3v-1.6h5.4c0,0.7-0.1,1.7-0.4,2.5c-0.8,2.1-2.7,3-4.3,3
			c-2.7,0-4.7-2.3-4.7-5.3c0-3,2.1-5.2,4.7-5.2c2,0,3.8,1.5,4.3,3.3H55.2z"/>
		<path class="st0" d="M58.8,10.6h2.7c1.4,0,2.2,0.2,2.7,0.6c0.7,0.6,1.1,1.6,1.1,2.8c0,0.7-0.2,1.4-0.5,1.9
			c-0.4,0.6-0.9,0.9-1.5,1.1l2,3.8h-1.9L61.1,16h0.3c0.6,0,1.2,0,1.6-0.4c0.3-0.3,0.6-0.9,0.6-1.5c0-0.6-0.3-1.2-0.7-1.5
			c-0.3-0.2-0.8-0.3-1.3-0.3h-1v8.3h-1.8V10.6z"/>
		<path class="st0" d="M66,15.7c0-3.2,2.2-5.3,4.7-5.3c2.7,0,4.7,2.4,4.7,5.3s-2,5.3-4.7,5.3C67.9,20.9,66,18.4,66,15.7L66,15.7z
			 M67.8,15.6c0,1.9,1.2,3.5,2.9,3.5c1.8,0,2.9-1.8,2.9-3.5c0-1.7-1.1-3.5-2.9-3.5C68.9,12.2,67.8,13.8,67.8,15.6L67.8,15.6z"/>
		<path class="st0" d="M76.6,10.6h5v1.8h-3.2v2.3h3.1v1.8h-3.1v2.5h3.2v1.8h-5V10.6z"/>
		<path class="st0" d="M85.7,10.6c1.5,0,2.1,0.2,2.6,0.7c0.6,0.6,1,1.6,1,2.6c0,1-0.4,2-0.9,2.6c-0.6,0.6-1.2,0.8-2.5,0.8h-1.1v3.5
			H83V10.6H85.7z M84.8,15.4h1.1c0.4,0,0.8,0,1.2-0.3c0.3-0.2,0.6-0.6,0.6-1.3c0-0.6-0.3-1.1-0.6-1.3c-0.4-0.2-0.8-0.3-1.2-0.3h-1
			V15.4z"/>
		<path class="st0" d="M91.6,17.6c0.1,1.4,0.9,1.6,1.2,1.6c0.7,0,1.2-0.6,1.2-1.3c0-0.9-0.6-1.1-1.9-1.6c-0.7-0.3-2.2-0.9-2.2-2.8
			c0-1.9,1.5-3,2.9-3c1.2,0,2.7,0.7,2.8,3H94c-0.1-0.5-0.2-1.2-1.1-1.2c-0.6,0-1.1,0.5-1.1,1.2c0,0.8,0.5,0.9,2,1.7
			c1.4,0.7,2.1,1.4,2.1,2.9c0,1.6-0.9,3.2-3,3.2c-2,0-3.1-1.4-3.1-3.3H91.6z"/>
		<path class="st0" d="M99.7,10.6c1.5,0,2.1,0.2,2.6,0.7c0.6,0.6,1,1.6,1,2.6c0,1-0.4,2-0.9,2.6c-0.6,0.6-1.2,0.8-2.5,0.8h-1.1v3.5
			H97V10.6H99.7z M98.8,15.4h1.1c0.4,0,0.8,0,1.2-0.3c0.3-0.2,0.6-0.6,0.6-1.3c0-0.6-0.3-1.1-0.6-1.3c-0.4-0.2-0.8-0.3-1.2-0.3h-1
			V15.4z"/>
		<path class="st0" d="M104.3,10.6h2.7c1.4,0,2.2,0.2,2.7,0.6c0.7,0.6,1.1,1.6,1.1,2.8c0,0.7-0.2,1.4-0.5,1.9
			c-0.4,0.6-0.9,0.9-1.5,1.1l2,3.8h-1.9l-2.4-4.7h0.3c0.6,0,1.2,0,1.6-0.4c0.3-0.3,0.6-0.9,0.6-1.5c0-0.6-0.3-1.2-0.7-1.5
			c-0.3-0.2-0.8-0.3-1.3-0.3h-1v8.3h-1.8V10.6z"/>
		<path class="st0" d="M113,20.7h-1.9l3.6-10.1h1.6l3.5,10.1h-2l-0.6-2h-3.5L113,20.7z M115.4,13l-1.3,4.1h2.6L115.4,13z"/>
		<path class="st0" d="M120.9,10.6h1.8v4.7l2.9-4.7h1.9l-3.2,5.1l3.5,5.1h-2.2l-3-4.5v4.5h-1.8V10.6z"/>
		<path class="st0" d="M129.9,12.4H128v-1.8h5.6v1.8h-1.9v8.3h-1.8V12.4z"/>
		<path class="st0" d="M134.5,10.6h1.8v10.1h-1.8V10.6z"/>
		<path class="st0" d="M142.9,17c0,1.1-0.1,1.7-0.3,2.2c-0.2,0.4-0.5,0.9-0.9,1.1c-0.5,0.4-1.1,0.6-1.7,0.6c-0.4,0-2.4-0.2-2.7-2.5
			c0-0.2,0-0.4-0.1-0.7h1.9c0,0.1,0,0.2,0,0.3c0.1,0.7,0.5,1.1,0.9,1.1c0.5,0,0.8-0.3,0.9-0.7c0.1-0.3,0.1-0.7,0.1-1v-6.9h1.8V17z"
			/>
		<path class="st0" d="M144.8,10.6h1.8v4.7l2.9-4.7h1.9l-3.2,5.1l3.5,5.1h-2.2l-3-4.5v4.5h-1.8V10.6z"/>
	</g>
	<g>
		<path class="st1" d="M49.6,24.5h5.3v1.8h-3.3v2.4h3.2v1.8h-3.2v4.1h-2V24.5z"/>
		<path class="st1" d="M61.9,24.5h3c1.6,0,2.4,0.2,3,0.6c0.8,0.6,1.3,1.6,1.3,2.7c0,0.7-0.2,1.4-0.5,1.9c-0.4,0.6-1,0.9-1.6,1.1
			l2.2,3.7h-2.1l-2.7-4.6h0.4c0.7,0,1.4,0,1.8-0.4c0.4-0.3,0.6-0.9,0.6-1.5c0-0.6-0.3-1.2-0.7-1.4c-0.4-0.2-0.9-0.3-1.4-0.3h-1.2
			v8.2h-2V24.5z"/>
		<path class="st1" d="M78.1,24.5v6.1c0,0.5,0,1,0.3,1.5c0.2,0.4,0.7,0.8,1.4,0.8c0.7,0,1.1-0.3,1.3-0.7c0.3-0.5,0.3-1,0.3-1.6v-6.1
			h2v6.1c0,1.5-0.3,2.4-1.1,3.1c-0.6,0.6-1.5,1-2.6,1c-0.7,0-1.9-0.2-2.6-1c-0.9-0.9-1.1-1.7-1.1-3.1v-6.1H78.1z"/>
		<path class="st1" d="M90.9,24.5h2v10h-2V24.5z"/>
		<path class="st1" d="M101.7,26.3h-2.2v-1.8h6.3v1.8h-2.1v8.2h-2V26.3z"/>
		<path class="st1" d="M112.6,34.5v-10h2v4h3.9v-4h2v10h-2v-4.2h-3.9v4.2H112.6z"/>
		<path class="st1" d="M127.5,29.6c0-3.2,2.5-5.3,5.2-5.3c3,0,5.3,2.4,5.3,5.2c0,2.8-2.2,5.2-5.3,5.2
			C129.7,34.7,127.5,32.3,127.5,29.6L127.5,29.6z M129.5,29.5c0,1.8,1.3,3.4,3.3,3.4c2,0,3.2-1.8,3.2-3.4c0-1.7-1.2-3.4-3.2-3.4
			C130.8,26.1,129.5,27.7,129.5,29.5L129.5,29.5z"/>
		<path class="st1" d="M145.1,24.5h5.3v1.8h-3.3v2.4h3.2v1.8h-3.2v4.1h-2V24.5z"/>
	</g>
	<g>
		<g>
			<rect x="14.2" y="0.4" class="st0" width="1.4" height="16"/>
			<path class="st0" d="M16,16.8h-2.2V0H16V16.8z M14.6,16h0.6V0.8h-0.6V16z"/>
		</g>
		<g>
			<polygon class="st0" points="14.1,41 15.4,41 15.4,33.9 14.1,34.7 			"/>
			<path class="st0" d="M15.8,41.4h-2.2v-6.9l2.2-1.3V41.4z M14.5,40.6H15v-6L14.5,35V40.6z"/>
		</g>
		<g>
			<rect x="25.5" y="25.4" class="st0" width="1.3" height="15.6"/>
			<path class="st0" d="M27.2,41.4h-2.2V25h2.2V41.4z M25.9,40.6h0.5V25.8h-0.5V40.6z"/>
		</g>
		<g>
			<g>
				<rect x="0.5" y="20.1" class="st0" width="40.6" height="1.3"/>
				<path class="st0" d="M41.4,21.8H0v-2.2h41.4V21.8z M0.9,21h39.7v-0.5H0.9V21z"/>
			</g>
			<g>
				<path class="st0" d="M21.1,21.3l-1.2-0.7l3.7-6.1c1.2-2,2.4-3.3,3.7-4.2c1.5-1,3.3-1.5,5.5-1.5H41v1.4h-8.2
					c-1.9,0-3.4,0.4-4.7,1.2c-1.2,0.8-2.2,2-3.3,3.7L21.1,21.3z"/>
				<path class="st0" d="M21.2,21.9l-1.9-1.1l3.9-6.4c1.2-2,2.5-3.4,3.9-4.3c1.6-1,3.4-1.5,5.7-1.5h8.6v2.2h-8.6
					c-1.8,0-3.2,0.4-4.5,1.2c-1.1,0.7-2.1,1.9-3.2,3.6L21.2,21.9z M20.4,20.5l0.5,0.3l3.5-5.7c1.1-1.8,2.2-3.1,3.4-3.9
					c1.4-0.9,2.9-1.3,4.9-1.3h7.8V9.3h-7.8c-2.1,0-3.8,0.5-5.2,1.4c-1.3,0.9-2.4,2.1-3.6,4.1L20.4,20.5z"/>
			</g>
			<g>
				<path class="st0" d="M8.3,32.8H0.4v-1.4h7.9c1.9,0,3.4-0.4,4.7-1.3c1.2-0.8,2.2-2,3.3-3.8c2.1-3.4,3.7-6.1,3.7-6.1l1.2,0.7
					c0,0-1.6,2.7-3.7,6.1c-1.2,2-2.4,3.3-3.7,4.2C12.3,32.3,10.5,32.8,8.3,32.8z"/>
				<path class="st0" d="M8.3,33.2H0V31h8.3c1.8,0,3.2-0.4,4.5-1.2c1.1-0.7,2.1-1.9,3.2-3.6c1.7-2.8,3.1-5,3.6-5.8l0.4-0.6l1.9,1.2
					l-0.4,0.7l-3.5,5.8c-1.2,2-2.5,3.4-3.9,4.3C12.4,32.7,10.6,33.2,8.3,33.2z M0.8,32.4h7.5c2.1,0,3.8-0.5,5.2-1.4
					c1.3-0.9,2.4-2.1,3.6-4.1l3.5-5.7l-0.5-0.3c-0.5,0.8-1.9,3-3.5,5.7c-1.1,1.8-2.2,3.1-3.4,3.9c-1.4,0.9-2.9,1.3-4.9,1.3H0.8V32.4
					z"/>
			</g>
		</g>
		<g>
			<polygon class="st0" points="25.5,7.8 26.8,6.9 26.8,0.4 25.5,0.4 			"/>
			<path class="st0" d="M25.1,8.5V0h2.2v7.2L25.1,8.5z M25.9,0.8V7l0.5-0.3V0.8H25.9z"/>
		</g>
	</g>
</g>
</svg>
