<?xml version="1.0" encoding="utf-8"?>
<!-- Generator: Adobe Illustrator 20.0.0, SVG Export Plug-In . SVG Version: 6.00 Build 0)  -->
<svg version="1.1" id="Layer_1" xmlns="http://www.w3.org/2000/svg" xmlns:xlink="http://www.w3.org/1999/xlink" x="0px" y="0px"
	 viewBox="0 0 138.8 189.9" style="enable-background:new 0 0 138.8 189.9;" xml:space="preserve">
<style type="text/css">
	.st0{fill:#FFFFFF;}
	.st1{fill:#333333;}
</style>
<g>
	<g>
		<circle class="st0" cx="70.3" cy="66.2" r="58.1"/>
		<path d="M69.4,0C31.1,0,0,31.1,0,69.4c0,38.3,69.4,120.5,69.4,120.5s69.4-82.2,69.4-120.5S107.8,0,69.4,0z M69.4,119.8
			c-28.7,0-52-23.3-52-52s23.3-52,52-52s52,23.3,52,52S98.2,119.8,69.4,119.8z"/>
	</g>
	<g>
		<g>
			<rect x="57.7" y="27.5" class="st1" width="2.5" height="28.8"/>
			<path class="st1" d="M60.9,57h-4V26.7h4V57z M58.4,55.6h1V28.2h-1V55.6z"/>
		</g>
		<g>
			<polygon class="st1" points="57.4,100.7 59.9,100.7 59.9,87.9 57.4,89.3 			"/>
			<path class="st1" d="M60.7,101.4h-4V88.9l4-2.4V101.4z M58.2,99.9h1V89.1l-1,0.6V99.9z"/>
		</g>
		<g>
			<rect x="78.1" y="72.5" class="st1" width="2.4" height="28.2"/>
			<path class="st1" d="M81.2,101.4h-3.9V71.7h3.9V101.4z M78.8,99.9h1V73.2h-1V99.9z"/>
		</g>
		<g>
			<g>
				<rect x="32.9" y="62.9" class="st1" width="73.1" height="2.4"/>
				<path class="st1" d="M106.8,66.1H32.2v-3.9h74.6V66.1z M33.6,64.6h71.7v-1H33.6V64.6z"/>
			</g>
			<g>
				<path class="st1" d="M70.1,65.2l-2.1-1.3l6.7-11c2.2-3.5,4.3-5.9,6.7-7.5c2.7-1.8,5.9-2.7,9.8-2.7H106v2.5H91.2
					c-3.4,0-6.1,0.7-8.5,2.3c-2.1,1.4-4,3.5-6,6.8L70.1,65.2z"/>
				<path class="st1" d="M70.3,66.2l-3.4-2.1L74,52.5c2.2-3.6,4.4-6.1,7-7.8c2.8-1.9,6.2-2.8,10.2-2.8h15.5v4H91.2
					c-3.3,0-5.9,0.7-8.1,2.1c-2,1.3-3.9,3.4-5.8,6.5L70.3,66.2z M68.9,63.6l0.9,0.5l6.3-10.4c2-3.3,4-5.5,6.2-7
					c2.5-1.6,5.3-2.4,8.9-2.4h14.1v-1H91.2c-3.8,0-6.8,0.8-9.4,2.5c-2.3,1.5-4.4,3.9-6.5,7.3L68.9,63.6z"/>
			</g>
			<g>
				<path class="st1" d="M47.1,85.9H32.8v-2.5h14.2c3.4,0,6.1-0.7,8.5-2.3c2.1-1.4,4-3.5,6-6.8c3.8-6.2,6.7-10.9,6.7-11l2.1,1.3
					c0,0-2.9,4.8-6.7,11c-2.2,3.5-4.3,5.9-6.7,7.5C54.2,85,51,85.9,47.1,85.9z"/>
				<path class="st1" d="M47.1,86.6h-15v-4h15c3.3,0,5.9-0.7,8.1-2.1c2-1.3,3.9-3.4,5.8-6.5c3.1-5,5.6-9.1,6.4-10.5l0.7-1.1l3.4,2.1
					l-0.7,1.2l-6.4,10.4c-2.2,3.6-4.4,6.1-7,7.8C54.5,85.7,51.1,86.6,47.1,86.6z M33.6,85.2h13.5c3.8,0,6.8-0.8,9.4-2.6
					c2.3-1.5,4.4-3.9,6.5-7.3L69.4,65l-0.9-0.5c-0.9,1.5-3.4,5.5-6.3,10.3c-2,3.3-4,5.5-6.2,7c-2.5,1.6-5.3,2.4-8.9,2.4H33.6V85.2z"
					/>
			</g>
		</g>
		<g>
			<polygon class="st1" points="78.1,40.7 80.5,39.3 80.5,27.5 78.1,27.5 			"/>
			<path class="st1" d="M77.3,42.1V26.7h3.9v12.9L77.3,42.1z M78.8,28.2v11.2l1-0.6V28.2H78.8z"/>
		</g>
	</g>
</g>
</svg>
