<?xml version="1.0" encoding="utf-8"?>
<!-- Generator: Adobe Illustrator 20.0.0, SVG Export Plug-In . SVG Version: 6.00 Build 0)  -->
<svg version="1.1" id="Layer_1" xmlns="http://www.w3.org/2000/svg" xmlns:xlink="http://www.w3.org/1999/xlink" x="0px" y="0px"
	 viewBox="0 0 711 500" style="enable-background:new 0 0 711 500;" xml:space="preserve">
<style type="text/css">
	.st0{fill:#333333;}
</style>
<g>
	<path class="st0" d="M321.9,219.4L278.4,47.2C271.5,19.8,240,0,203.6,0h-86.1C79.9,0,48.3,20.6,42.3,49
		c-7.7,36.5-23.1,107-40.6,169.5c-6.8,24.3,7.2,49,34.9,61.4c10,4.5,22.1,9.3,35.9,13.6L24.5,489.1c-1.2,4.7,1.7,9.5,6.5,10.6
		c0.7,0.2,1.4,0.3,2.1,0.3c4,0,7.6-2.7,8.5-6.7l19.4-79l100.6-26.8l100.6,26.8l19.4,79c1,4,4.6,6.7,8.5,6.7c0.7,0,1.4-0.1,2.1-0.3
		c4.7-1.2,7.6-5.9,6.5-10.6l-48-195.9c14.3-4.5,26.8-9.6,37.1-14.3C314.1,266.8,327.8,242.9,321.9,219.4z M62.6,407.8l10.7-43.9
		l76.9,20.5L62.6,407.8z M173,384.4l76.9-20.5l10.7,43.9L173,384.4z M248.5,358.2l-86.9,23.2l-86.9-23.2l14.7-59.9
		c21.1,5.3,45.3,9,71.6,9c26.8,0,51.4-3.8,72.8-9.3L248.5,358.2z M161,301.5c-51.6,0-94.8-14.6-122-26.9
		c-24.9-11.2-37.6-33.1-31.6-54.5C24.9,157.5,40.4,86.8,48,50.2c5.4-25.7,34.6-44.4,69.4-44.4h86.1c33.8,0,62.8,18,69.1,42.8
		l43.5,172.2c5.2,20.6-7.2,41.8-30.8,52.7C257.8,286.3,213.8,301.5,161,301.5z"/>
	<path class="st0" d="M709.6,219.4L666.1,47.2C659.2,19.8,627.8,0,591.4,0h-86.1c-37.6,0-69.2,20.6-75.2,49
		c-7.7,36.5-23.1,107-40.6,169.5c-6.8,24.3,7.2,49,34.9,61.4c10,4.5,22.1,9.3,35.9,13.6l-47.9,195.6c-1.2,4.7,1.7,9.5,6.5,10.6
		c0.7,0.2,1.4,0.3,2.1,0.3c4,0,7.6-2.7,8.5-6.7l19.4-79l100.6-26.8l100.6,26.8l19.4,79c1,4,4.6,6.7,8.5,6.7c0.7,0,1.4-0.1,2.1-0.3
		c4.7-1.2,7.6-5.9,6.5-10.6l-48-195.9c14.3-4.5,26.8-9.6,37.1-14.3C701.9,266.8,715.5,242.9,709.6,219.4z M450.3,407.8l10.7-43.9
		l76.9,20.5L450.3,407.8z M560.8,384.4l76.9-20.5l10.7,43.9L560.8,384.4z M636.3,358.2l-86.9,23.2l-86.9-23.2l14.7-59.9
		c21.1,5.3,45.3,9,71.6,9c26.8,0,51.4-3.8,72.8-9.3L636.3,358.2z M548.8,301.5c-51.6,0-94.8-14.6-122-26.9
		c-24.9-11.2-37.6-33.1-31.6-54.5c17.5-62.6,33-133.3,40.7-169.9c5.4-25.7,34.6-44.4,69.4-44.4h86.1c33.8,0,62.8,18,69.1,42.8
		l43.5,172.2c5.2,20.6-7.2,41.8-30.8,52.7C645.6,286.3,601.6,301.5,548.8,301.5z"/>
</g>
</svg>
