<?xml version="1.0" encoding="utf-8"?>
<!-- Generator: Adobe Illustrator 20.0.0, SVG Export Plug-In . SVG Version: 6.00 Build 0)  -->
<svg version="1.1" id="Layer_1" xmlns="http://www.w3.org/2000/svg" xmlns:xlink="http://www.w3.org/1999/xlink" x="0px" y="0px"
	 viewBox="0 0 495.6 493.7" style="enable-background:new 0 0 495.6 493.7;" xml:space="preserve">
<style type="text/css">
	.st0{fill:#333333;}
</style>
<g>
	<path class="st0" d="M483.7,65.6L67.2,482c-15.1,15.1-39.5,15.1-54.6,0l0,0c-15.1-15.1-15.1-39.5,0-54.6L429.1,11
		c15.1-15.1,39.5-15.1,54.6,0l0,0C498.8,26.1,498.8,50.5,483.7,65.6z"/>
	<path class="st0" d="M428.8,482.4L12.3,65.9c-15.1-15.1-15.1-39.5,0-54.6l0,0c15.1-15.1,39.5-15.1,54.6,0l416.5,416.5
		c15.1,15.1,15.1,39.5,0,54.6l0,0C468.3,497.4,443.8,497.4,428.8,482.4z"/>
</g>
</svg>
