<?xml version="1.0" encoding="utf-8"?>
<!-- Generator: Adobe Illustrator 20.0.0, SVG Export Plug-In . SVG Version: 6.00 Build 0)  -->
<svg version="1.1" id="Layer_1" xmlns="http://www.w3.org/2000/svg" xmlns:xlink="http://www.w3.org/1999/xlink" x="0px" y="0px"
	 viewBox="0 0 500 500" style="enable-background:new 0 0 500 500;" xml:space="preserve">
<g>
	<path d="M481.5,352.9h-463C8.3,352.9,0,339.8,0,323.6c0-16.2,8.3-29.3,18.5-29.3h463c10.2,0,18.5,13.1,18.5,29.3
		C500,339.8,491.7,352.9,481.5,352.9z"/>
	<path d="M18.5,441.4h185.2c10.2,0,18.5,13.1,18.5,29.3c0,16.2-8.3,29.3-18.5,29.3H18.5C8.3,500,0,486.9,0,470.7
		C0,454.5,8.3,441.4,18.5,441.4z"/>
	<path d="M481.5,205.7h-463C8.3,205.7,0,192.6,0,176.4c0-16.2,8.3-29.3,18.5-29.3h463c10.2,0,18.5,13.1,18.5,29.3
		S491.7,205.7,481.5,205.7z"/>
	<path d="M481.5,58.6h-463C8.3,58.6,0,45.5,0,29.3C0,13.1,8.3,0,18.5,0l463,0C491.7,0,500,13.1,500,29.3S491.7,58.6,481.5,58.6z"/>
</g>
</svg>
