<?xml version="1.0" encoding="utf-8"?>
<!-- Generator: Adobe Illustrator 20.0.0, SVG Export Plug-In . SVG Version: 6.00 Build 0)  -->
<svg version="1.1" id="Layer_1" xmlns="http://www.w3.org/2000/svg" xmlns:xlink="http://www.w3.org/1999/xlink" x="0px" y="0px"
	 viewBox="0 0 500 500" style="enable-background:new 0 0 500 500;" xml:space="preserve">
<g>
	<path d="M461.1,226.5l-93.9,93.8c-51.8,51.8-135.8,51.8-187.7,0c-8.2-8.1-14.5-17.3-20.2-26.8l43.6-43.6c2.1-2.1,4.6-3.3,7.1-4.7
		c3,10.3,8.3,20.1,16.4,28.2c25.9,25.9,68,25.9,93.8,0l93.8-93.8c25.9-25.9,25.9-68,0-93.8c-25.9-25.9-67.9-25.9-93.8,0L287,119.2
		c-27.1-10.5-56.2-13.4-84.6-9.2l71.1-71.1c51.8-51.8,135.9-51.8,187.7,0C513,90.7,513,174.7,461.1,226.5z M213,380.8l-33.4,33.4
		c-25.9,25.9-68,25.9-93.8,0c-25.9-25.9-25.9-68,0-93.9l93.8-93.8c25.9-25.9,68-25.9,93.8,0c8.1,8.1,13.4,17.8,16.4,28.1
		c2.5-1.4,5-2.6,7.1-4.7l43.6-43.6c-5.6-9.5-12-18.6-20.2-26.8c-51.8-51.8-135.8-51.8-187.7,0l-93.8,93.8
		c-51.8,51.8-51.8,135.8,0,187.7c51.8,51.8,135.9,51.8,187.7,0l71.1-71.1C269.2,394.2,240.1,391.4,213,380.8z"/>
</g>
</svg>
