<?xml version="1.0" encoding="utf-8"?>
<!-- Generator: Adobe Illustrator 20.0.0, SVG Export Plug-In . SVG Version: 6.00 Build 0)  -->
<svg version="1.1" id="Layer_1" xmlns="http://www.w3.org/2000/svg" xmlns:xlink="http://www.w3.org/1999/xlink" x="0px" y="0px"
	 viewBox="0 0 391.7 500" style="enable-background:new 0 0 391.7 500;" xml:space="preserve">
<g>
	<path d="M300,183.3H91.7c-4.6,0-8.3,3.7-8.3,8.3c0,4.6,3.7,8.3,8.3,8.3H300c4.6,0,8.3-3.7,8.3-8.3
		C308.3,187.1,304.6,183.3,300,183.3z"/>
	<path d="M91.7,133.3H175c4.6,0,8.3-3.7,8.3-8.3s-3.7-8.3-8.3-8.3H91.7c-4.6,0-8.3,3.7-8.3,8.3S87.1,133.3,91.7,133.3z"/>
	<path d="M300,250H91.7c-4.6,0-8.3,3.7-8.3,8.3c0,4.6,3.7,8.3,8.3,8.3H300c4.6,0,8.3-3.7,8.3-8.3C308.3,253.7,304.6,250,300,250z"/>
	<path d="M300,316.7H91.7c-4.6,0-8.3,3.7-8.3,8.3s3.7,8.3,8.3,8.3H300c4.6,0,8.3-3.7,8.3-8.3S304.6,316.7,300,316.7z"/>
	<path d="M300,383.3H91.7c-4.6,0-8.3,3.7-8.3,8.3c0,4.6,3.7,8.3,8.3,8.3H300c4.6,0,8.3-3.7,8.3-8.3
		C308.3,387.1,304.6,383.3,300,383.3z"/>
	<path d="M270.1,0H0v500h391.7V121.6L270.1,0z M275,28.5l88.2,88.2H275V28.5z M16.7,483.3V16.7h241.7v116.7H375v350H16.7z"/>
</g>
</svg>
