<?xml version="1.0" encoding="utf-8"?>
<!-- Generator: Adobe Illustrator 20.0.0, SVG Export Plug-In . SVG Version: 6.00 Build 0)  -->
<svg version="1.1" id="Layer_1" xmlns="http://www.w3.org/2000/svg" xmlns:xlink="http://www.w3.org/1999/xlink" x="0px" y="0px"
	 viewBox="0 0 500 500" style="enable-background:new 0 0 500 500;" xml:space="preserve">
<path d="M0.5,375L0,477.8c0,5.8,2.1,11.6,6.3,15.8s9.5,6.3,15.3,6.3l102.3-0.5c5.8,0,11.1-2.1,15.3-6.3l353.4-353.4
	c8.4-8.4,8.4-22.2,0-31.1L391.4,6.3c-8.4-8.4-22.2-8.4-31.1,0l-70.7,71.2L6.9,359.7C3.2,363.9,0.5,369.2,0.5,375z M376.1,52.7
	l71.2,71.2L407.2,164L336,92.8L376.1,52.7z M44.3,384.5l260.5-260.5l71.2,71.2l-260.5,260l-71.7,0.5L44.3,384.5z"/>
</svg>
