<?xml version="1.0" encoding="utf-8"?>
<!-- Generator: Adobe Illustrator 20.0.0, SVG Export Plug-In . SVG Version: 6.00 Build 0)  -->
<svg version="1.1" id="Layer_1" xmlns="http://www.w3.org/2000/svg" xmlns:xlink="http://www.w3.org/1999/xlink" x="0px" y="0px"
	 viewBox="0 0 500 500" style="enable-background:new 0 0 500 500;" xml:space="preserve">
<style type="text/css">
	.st0{fill:#333333;}
</style>
<g>
	<g>
		<g>
			<path class="st0" d="M298,360.9c-4.3,1-7.5,4.3-11.8,5.4c-5.4,2.1-9.7,3.3-15.1,4.3c-6.4,1-10.8-3.3-12.8-8.7
				c-1-5.4-2.1-9.7-1-15.1c1-9.7,3.3-19.5,5.4-29.2c5.4-29.2,10.8-59.2,16.1-88.4c1-7.5,3.3-16.1,2.1-23.8c0-9.7-6.4-14.1-16.1-14.1
				c-12.8,0-26.9,0-40,0c-13,0-25.9,0-37.7,0c-3.3,0-6.4,0-9.7,1c-5.4,1-8.7,4.3-9.7,8.7c0,3.3,2.1,7.5,7.5,9.7
				c4.3,1,8.7,2.1,14.1,2.1c10.8,1,14.1,5.4,14.1,16.1c0,2.1,0,3.3,0,5.4c-4.3,25.9-8.7,51.8-14.1,77.6c-2.1,15.1-4.3,30.2-6.4,44.1
				c-3.3,21.5,18.4,42,34.6,44.1c9.7,1,20.5,2.1,30.2,2.1c21.5,0,40-9.7,55.1-24.8c2.1-2.1,5.4-6.4,5.4-9.7
				C308.8,362.1,304.4,357.8,298,360.9z"/>
			<path class="st0" d="M247.3,172.3c22.6,0,41-18.4,41-41s-18.4-42-41-42s-41,18.4-42,41C206.3,154.1,224.7,172.3,247.3,172.3z"/>
		</g>
		<path class="st0" d="M250,500C112.2,500,0,387.8,0,250C0,112.2,112.2,0,250,0c137.8,0,250,112.2,250,250
			C500,387.8,387.8,500,250,500z M250,38.1C133.2,38.1,38.1,133.2,38.1,250S133.2,461.9,250,461.9s211.9-95,211.9-211.9
			S366.9,38.1,250,38.1z"/>
	</g>
</g>
</svg>
