<?xml version="1.0" encoding="utf-8"?>
<!-- Generator: Adobe Illustrator 20.0.0, SVG Export Plug-In . SVG Version: 6.00 Build 0)  -->
<svg version="1.1" id="Layer_1" xmlns="http://www.w3.org/2000/svg" xmlns:xlink="http://www.w3.org/1999/xlink" x="0px" y="0px"
	 viewBox="0 0 486.5 500" style="enable-background:new 0 0 486.5 500;" xml:space="preserve">
<g>
	<g>
		<path d="M257.1,214.3c-5.3,5.9-5.3,15.3,0,21.2c22.1,24.4,22.1,63.9,0,88.3L141.3,451.7c-22.1,24.4-57.9,24.4-80,0l-17.4-19.2
			c-22.1-24.4-22.1-63.9,0-88.3l115.9-127.9c5.3-5.9,5.3-15.3,0-21.2c-5.3-5.9-13.9-5.9-19.2,0L24.6,323C8.8,340.4,0,363.7,0,388.3
			c0,24.7,8.7,47.9,24.6,65.4L42,473c16.3,18,37.8,27,59.2,27s42.9-9,59.2-27l115.9-127.9c32.6-36,32.6-94.8,0-130.8
			C271.2,208.4,262.5,208.4,257.1,214.3z"/>
		<path d="M462,46.3L444.6,27c-32.6-36-85.8-36-118.5,0L210.2,154.9c-32.6,36-32.6,94.8,0,130.8c5.3,5.9,13.9,5.9,19.2,0
			c5.3-5.9,5.3-15.3,0-21.2c-22.1-24.4-22.1-63.9,0-88.3L345.3,48.3c22.1-24.4,57.9-24.4,80,0l17.4,19.2c22.1,24.4,22.1,63.9,0,88.3
			L326.9,283.7c-5.3,5.9-5.3,15.3,0,21.2c2.6,2.9,6.1,4.4,9.6,4.4s7-1.4,9.6-4.4L461.9,177c15.8-17.5,24.6-40.7,24.6-65.4
			S477.8,63.7,462,46.3z"/>
	</g>
</g>
</svg>
