<?xml version="1.0" encoding="utf-8"?>
<!-- Generator: Adobe Illustrator 20.0.0, SVG Export Plug-In . SVG Version: 6.00 Build 0)  -->
<svg version="1.1" id="Layer_1" xmlns="http://www.w3.org/2000/svg" xmlns:xlink="http://www.w3.org/1999/xlink" x="0px" y="0px"
	 viewBox="0 0 750.3 500" style="enable-background:new 0 0 750.3 500;" xml:space="preserve">
<style type="text/css">
	.st0{fill:#333333;}
</style>
<g>
	<path class="st0" d="M706.8,87H43.5C19.5,87,0,67.5,0,43.5v0C0,19.5,19.5,0,43.5,0l663.3,0c24,0,43.5,19.5,43.5,43.5v0
		C750.3,67.5,730.8,87,706.8,87z"/>
	<path class="st0" d="M706.8,293.3H43.5c-24,0-43.5-19.5-43.5-43.5v0c0-24,19.5-43.5,43.5-43.5h663.3c24,0,43.5,19.5,43.5,43.5v0
		C750.3,273.8,730.8,293.3,706.8,293.3z"/>
	<path class="st0" d="M706.8,500H43.5C19.5,500,0,480.5,0,456.5v0c0-24,19.5-43.5,43.5-43.5h663.3c24,0,43.5,19.5,43.5,43.5v0
		C750.3,480.5,730.8,500,706.8,500z"/>
</g>
</svg>
