<?xml version="1.0" encoding="utf-8"?>
<!-- Generator: Adobe Illustrator 20.0.0, SVG Export Plug-In . SVG Version: 6.00 Build 0)  -->
<svg version="1.1" id="Layer_1" xmlns="http://www.w3.org/2000/svg" xmlns:xlink="http://www.w3.org/1999/xlink" x="0px" y="0px"
	 viewBox="0 0 500 500" style="enable-background:new 0 0 500 500;" xml:space="preserve">
<g>
	<g id="search_1_">
		<path d="M357.1,314.3h-22.9l-8.6-8.6c28.6-31.4,45.7-74.3,45.7-120C371.4,82.9,288.6,0,185.7,0S0,82.9,0,185.7
			s82.9,185.7,185.7,185.7c45.7,0,88.6-17.1,120-45.7l8.6,8.6v22.9L457.1,500l42.9-42.9L357.1,314.3z M185.7,314.3
			c-71.4,0-128.6-57.1-128.6-128.6S114.3,57.1,185.7,57.1s128.6,57.1,128.6,128.6S257.1,314.3,185.7,314.3z"/>
	</g>
</g>
</svg>
